<mxfile host="app.diagrams.net" agent="Mozilla/5.0 (Windows NT 10.0; Win64; x64) AppleWebKit/537.36 (KHTML, like Gecko) Chrome/135.0.0.0 Safari/537.36" version="26.2.8">
  <diagram name="Página-1" id="ywk-HJsUbcEhkdRfvcGg">
    <mxGraphModel dx="1190" dy="663" grid="0" gridSize="10" guides="1" tooltips="1" connect="1" arrows="1" fold="1" page="1" pageScale="1" pageWidth="827" pageHeight="1169" math="0" shadow="0">
      <root>
        <mxCell id="0" />
        <mxCell id="1" parent="0" />
        <mxCell id="RSOyK7nKB_YsAl5glASh-1" value="" style="rounded=1;whiteSpace=wrap;html=1;" vertex="1" parent="1">
          <mxGeometry x="365" y="288" width="120" height="236" as="geometry" />
        </mxCell>
        <mxCell id="RSOyK7nKB_YsAl5glASh-2" value="" style="rounded=1;whiteSpace=wrap;html=1;" vertex="1" parent="1">
          <mxGeometry x="657" y="60" width="120" height="464" as="geometry" />
        </mxCell>
        <mxCell id="RSOyK7nKB_YsAl5glASh-4" value="" style="shape=image;verticalLabelPosition=bottom;labelBackgroundColor=default;verticalAlign=top;aspect=fixed;imageAspect=0;image=https://www.digitalcompass.one/hs-fs/hubfs/HubSpot-Logo.png?width=3840&amp;height=2160&amp;name=HubSpot-Logo.png;" vertex="1" parent="1">
          <mxGeometry x="663" y="99" width="108" height="60.75" as="geometry" />
        </mxCell>
        <mxCell id="RSOyK7nKB_YsAl5glASh-21" style="edgeStyle=orthogonalEdgeStyle;rounded=0;orthogonalLoop=1;jettySize=auto;html=1;" edge="1" parent="1">
          <mxGeometry relative="1" as="geometry">
            <mxPoint x="365" y="389" as="targetPoint" />
            <mxPoint x="194" y="389.9655172413793" as="sourcePoint" />
            <Array as="points">
              <mxPoint x="278" y="390" />
              <mxPoint x="361" y="389" />
            </Array>
          </mxGeometry>
        </mxCell>
        <mxCell id="RSOyK7nKB_YsAl5glASh-5" value="" style="rounded=1;whiteSpace=wrap;html=1;" vertex="1" parent="1">
          <mxGeometry x="73" y="59" width="120" height="465" as="geometry" />
        </mxCell>
        <mxCell id="RSOyK7nKB_YsAl5glASh-6" value="Client" style="sketch=0;outlineConnect=0;fontColor=#232F3E;gradientColor=none;strokeColor=#232F3E;fillColor=#ffffff;dashed=0;verticalLabelPosition=bottom;verticalAlign=top;align=center;html=1;fontSize=12;fontStyle=0;aspect=fixed;shape=mxgraph.aws4.resourceIcon;resIcon=mxgraph.aws4.client;" vertex="1" parent="1">
          <mxGeometry x="103" y="96" width="60" height="60" as="geometry" />
        </mxCell>
        <mxCell id="RSOyK7nKB_YsAl5glASh-7" value="Server" style="outlineConnect=0;dashed=0;verticalLabelPosition=bottom;verticalAlign=top;align=center;html=1;shape=mxgraph.aws3.traditional_server;fillColor=#7D7C7C;gradientColor=none;" vertex="1" parent="1">
          <mxGeometry x="401.75" y="306" width="46.5" height="63" as="geometry" />
        </mxCell>
        <mxCell id="RSOyK7nKB_YsAl5glASh-8" style="edgeStyle=orthogonalEdgeStyle;rounded=0;orthogonalLoop=1;jettySize=auto;html=1;entryX=-0.014;entryY=0.172;entryDx=0;entryDy=0;entryPerimeter=0;flowAnimation=0;shadow=0;" edge="1" parent="1" source="RSOyK7nKB_YsAl5glASh-5" target="RSOyK7nKB_YsAl5glASh-1">
          <mxGeometry relative="1" as="geometry">
            <Array as="points">
              <mxPoint x="237" y="329" />
              <mxPoint x="237" y="329" />
            </Array>
          </mxGeometry>
        </mxCell>
        <mxCell id="RSOyK7nKB_YsAl5glASh-10" value="&lt;font style=&quot;font-size: 13px;&quot;&gt;/oauth/authorize-url&lt;/font&gt;" style="edgeLabel;html=1;align=center;verticalAlign=middle;resizable=0;points=[];" vertex="1" connectable="0" parent="RSOyK7nKB_YsAl5glASh-8">
          <mxGeometry x="-0.1349" y="2" relative="1" as="geometry">
            <mxPoint x="8" y="-7" as="offset" />
          </mxGeometry>
        </mxCell>
        <mxCell id="RSOyK7nKB_YsAl5glASh-12" value="1" style="ellipse;whiteSpace=wrap;html=1;aspect=fixed;rotation=0;gradientColor=#223548;strokeColor=none;gradientDirection=east;fillColor=#5b738b;rounded=0;pointerEvents=0;fontFamily=Helvetica;fontSize=16;fontColor=#FFFFFF;spacingTop=4;spacingBottom=4;spacingLeft=4;spacingRight=4;points=[];fontStyle=1" vertex="1" parent="1">
          <mxGeometry x="195" y="305" width="20" height="20" as="geometry" />
        </mxCell>
        <mxCell id="RSOyK7nKB_YsAl5glASh-13" value="2" style="ellipse;whiteSpace=wrap;html=1;aspect=fixed;rotation=0;gradientColor=#223548;strokeColor=none;gradientDirection=east;fillColor=#5b738b;rounded=0;pointerEvents=0;fontFamily=Helvetica;fontSize=16;fontColor=#FFFFFF;spacingTop=4;spacingBottom=4;spacingLeft=4;spacingRight=4;points=[];fontStyle=1" vertex="1" parent="1">
          <mxGeometry x="463" y="128" width="22" height="22" as="geometry" />
        </mxCell>
        <mxCell id="RSOyK7nKB_YsAl5glASh-15" style="edgeStyle=orthogonalEdgeStyle;rounded=0;orthogonalLoop=1;jettySize=auto;html=1;entryX=-0.033;entryY=0.138;entryDx=0;entryDy=0;entryPerimeter=0;curved=1;exitX=0.5;exitY=0;exitDx=0;exitDy=0;" edge="1" parent="1" source="RSOyK7nKB_YsAl5glASh-1" target="RSOyK7nKB_YsAl5glASh-2">
          <mxGeometry relative="1" as="geometry">
            <Array as="points">
              <mxPoint x="425" y="257" />
              <mxPoint x="466" y="257" />
              <mxPoint x="466" y="124" />
            </Array>
          </mxGeometry>
        </mxCell>
        <mxCell id="RSOyK7nKB_YsAl5glASh-16" value="&lt;font style=&quot;font-size: 14px;&quot;&gt;Redirect to Auth&lt;/font&gt;" style="text;html=1;align=center;verticalAlign=middle;resizable=0;points=[];autosize=1;strokeColor=none;fillColor=none;" vertex="1" parent="1">
          <mxGeometry x="475" y="99" width="118" height="29" as="geometry" />
        </mxCell>
        <mxCell id="RSOyK7nKB_YsAl5glASh-17" style="edgeStyle=orthogonalEdgeStyle;rounded=0;orthogonalLoop=1;jettySize=auto;html=1;entryX=1.008;entryY=0.343;entryDx=0;entryDy=0;entryPerimeter=0;" edge="1" parent="1">
          <mxGeometry relative="1" as="geometry">
            <mxPoint x="657.5200000000002" y="323.0000000000002" as="sourcePoint" />
            <mxPoint x="486.48" y="322.9480000000001" as="targetPoint" />
            <Array as="points">
              <mxPoint x="615.52" y="323" />
              <mxPoint x="615.52" y="323" />
            </Array>
          </mxGeometry>
        </mxCell>
        <mxCell id="RSOyK7nKB_YsAl5glASh-18" value="&lt;font style=&quot;font-size: 14px;&quot;&gt;HubSpot → Callback URL&lt;br&gt;&amp;nbsp;com &lt;code style=&quot;&quot; data-end=&quot;834&quot; data-start=&quot;828&quot;&gt;code&lt;/code&gt;&lt;/font&gt;" style="text;html=1;align=center;verticalAlign=middle;resizable=0;points=[];autosize=1;strokeColor=none;fillColor=none;" vertex="1" parent="1">
          <mxGeometry x="480.52" y="281" width="180" height="47" as="geometry" />
        </mxCell>
        <mxCell id="RSOyK7nKB_YsAl5glASh-19" value="3" style="ellipse;whiteSpace=wrap;html=1;aspect=fixed;rotation=0;gradientColor=#223548;strokeColor=none;gradientDirection=east;fillColor=#5b738b;rounded=0;pointerEvents=0;fontFamily=Helvetica;fontSize=16;fontColor=#FFFFFF;spacingTop=4;spacingBottom=4;spacingLeft=4;spacingRight=4;points=[];fontStyle=1" vertex="1" parent="1">
          <mxGeometry x="626" y="263" width="25" height="25" as="geometry" />
        </mxCell>
        <mxCell id="RSOyK7nKB_YsAl5glASh-20" value="&lt;font style=&quot;font-size: 14px;&quot;&gt;Authenticated server.&lt;/font&gt;" style="text;html=1;align=center;verticalAlign=middle;resizable=0;points=[];autosize=1;strokeColor=none;fillColor=none;" vertex="1" parent="1">
          <mxGeometry x="504" y="318" width="150" height="29" as="geometry" />
        </mxCell>
        <mxCell id="RSOyK7nKB_YsAl5glASh-23" value="&lt;font style=&quot;font-size: 14px;&quot;&gt;Client requests&lt;/font&gt;&lt;div&gt;&lt;font style=&quot;font-size: 14px;&quot;&gt;&amp;nbsp;contact creation&lt;/font&gt;&lt;/div&gt;" style="text;html=1;align=center;verticalAlign=middle;resizable=0;points=[];autosize=1;strokeColor=none;fillColor=none;" vertex="1" parent="1">
          <mxGeometry x="220.5" y="348.25" width="121" height="46" as="geometry" />
        </mxCell>
        <mxCell id="RSOyK7nKB_YsAl5glASh-24" style="edgeStyle=orthogonalEdgeStyle;rounded=0;orthogonalLoop=1;jettySize=auto;html=1;entryX=0.001;entryY=0.823;entryDx=0;entryDy=0;entryPerimeter=0;" edge="1" parent="1">
          <mxGeometry relative="1" as="geometry">
            <mxPoint x="485" y="447.29" as="sourcePoint" />
            <mxPoint x="657.1199999999999" y="447.1620000000001" as="targetPoint" />
            <Array as="points">
              <mxPoint x="511" y="447.29" />
              <mxPoint x="511" y="447.29" />
            </Array>
          </mxGeometry>
        </mxCell>
        <mxCell id="RSOyK7nKB_YsAl5glASh-25" value="&lt;font style=&quot;font-size: 14px;&quot;&gt;Server requests Create&amp;nbsp;&lt;/font&gt;&lt;div&gt;&lt;font style=&quot;font-size: 14px;&quot;&gt;Contact (authenticated)&lt;/font&gt;&lt;/div&gt;" style="text;html=1;align=center;verticalAlign=middle;resizable=0;points=[];autosize=1;strokeColor=none;fillColor=none;" vertex="1" parent="1">
          <mxGeometry x="496" y="407" width="167" height="46" as="geometry" />
        </mxCell>
        <mxCell id="RSOyK7nKB_YsAl5glASh-26" value="5" style="ellipse;whiteSpace=wrap;html=1;aspect=fixed;rotation=0;gradientColor=#223548;strokeColor=none;gradientDirection=east;fillColor=#5b738b;rounded=0;pointerEvents=0;fontFamily=Helvetica;fontSize=16;fontColor=#FFFFFF;spacingTop=4;spacingBottom=4;spacingLeft=4;spacingRight=4;points=[];fontStyle=1" vertex="1" parent="1">
          <mxGeometry x="198" y="360" width="22.5" height="22.5" as="geometry" />
        </mxCell>
        <mxCell id="RSOyK7nKB_YsAl5glASh-27" value="" style="rounded=1;whiteSpace=wrap;html=1;" vertex="1" parent="1">
          <mxGeometry x="365" y="448" width="120" height="79" as="geometry" />
        </mxCell>
        <mxCell id="RSOyK7nKB_YsAl5glASh-28" style="edgeStyle=orthogonalEdgeStyle;rounded=0;orthogonalLoop=1;jettySize=auto;html=1;entryX=1.007;entryY=0.578;entryDx=0;entryDy=0;entryPerimeter=0;" edge="1" parent="1">
          <mxGeometry relative="1" as="geometry">
            <mxPoint x="657.0000000000002" y="508.0000000000002" as="sourcePoint" />
            <mxPoint x="485.84000000000015" y="507.66200000000003" as="targetPoint" />
            <Array as="points">
              <mxPoint x="615" y="508" />
              <mxPoint x="615" y="508" />
            </Array>
          </mxGeometry>
        </mxCell>
        <mxCell id="RSOyK7nKB_YsAl5glASh-29" value="&lt;font style=&quot;font-size: 14px;&quot;&gt;Webhook notification&lt;/font&gt;" style="edgeLabel;html=1;align=center;verticalAlign=middle;resizable=0;points=[];" vertex="1" connectable="0" parent="RSOyK7nKB_YsAl5glASh-28">
          <mxGeometry x="0.0653" y="-2" relative="1" as="geometry">
            <mxPoint x="-2" y="-10" as="offset" />
          </mxGeometry>
        </mxCell>
        <mxCell id="RSOyK7nKB_YsAl5glASh-30" value="6" style="ellipse;whiteSpace=wrap;html=1;aspect=fixed;rotation=0;gradientColor=#223548;strokeColor=none;gradientDirection=east;fillColor=#5b738b;rounded=0;pointerEvents=0;fontFamily=Helvetica;fontSize=16;fontColor=#FFFFFF;spacingTop=4;spacingBottom=4;spacingLeft=4;spacingRight=4;points=[];fontStyle=1" vertex="1" parent="1">
          <mxGeometry x="484" y="414" width="20" height="20" as="geometry" />
        </mxCell>
        <mxCell id="RSOyK7nKB_YsAl5glASh-31" value="Flow logs" style="sketch=0;outlineConnect=0;fontColor=#232F3E;gradientColor=none;strokeColor=#232F3E;fillColor=#ffffff;dashed=0;verticalLabelPosition=bottom;verticalAlign=top;align=center;html=1;fontSize=12;fontStyle=0;aspect=fixed;shape=mxgraph.aws4.resourceIcon;resIcon=mxgraph.aws4.flow_logs;" vertex="1" parent="1">
          <mxGeometry x="411.13" y="453" width="27.75" height="27.75" as="geometry" />
        </mxCell>
        <mxCell id="RSOyK7nKB_YsAl5glASh-32" style="edgeStyle=orthogonalEdgeStyle;rounded=0;orthogonalLoop=1;jettySize=auto;html=1;entryX=-0.024;entryY=0.681;entryDx=0;entryDy=0;entryPerimeter=0;" edge="1" parent="1">
          <mxGeometry relative="1" as="geometry">
            <mxPoint x="485" y="393.59999999999997" as="sourcePoint" />
            <mxPoint x="654.1200000000001" y="393.5840000000001" as="targetPoint" />
            <Array as="points">
              <mxPoint x="503" y="393.59999999999997" />
              <mxPoint x="503" y="393.59999999999997" />
            </Array>
          </mxGeometry>
        </mxCell>
        <mxCell id="RSOyK7nKB_YsAl5glASh-33" value="&lt;font style=&quot;font-size: 14px;&quot;&gt;Exchange code&amp;nbsp;&lt;/font&gt;&lt;div&gt;&lt;font style=&quot;font-size: 14px;&quot;&gt;for access_token&lt;/font&gt;&lt;/div&gt;" style="edgeLabel;html=1;align=center;verticalAlign=middle;resizable=0;points=[];" vertex="1" connectable="0" parent="RSOyK7nKB_YsAl5glASh-32">
          <mxGeometry x="-0.0638" y="1" relative="1" as="geometry">
            <mxPoint x="8" y="-18" as="offset" />
          </mxGeometry>
        </mxCell>
        <mxCell id="RSOyK7nKB_YsAl5glASh-34" value="4" style="ellipse;whiteSpace=wrap;html=1;aspect=fixed;rotation=0;gradientColor=#223548;strokeColor=none;gradientDirection=east;fillColor=#5b738b;rounded=0;pointerEvents=0;fontFamily=Helvetica;fontSize=16;fontColor=#FFFFFF;spacingTop=4;spacingBottom=4;spacingLeft=4;spacingRight=4;points=[];fontStyle=1" vertex="1" parent="1">
          <mxGeometry x="492" y="358.5" width="24" height="24" as="geometry" />
        </mxCell>
        <mxCell id="RSOyK7nKB_YsAl5glASh-35" value="7" style="ellipse;whiteSpace=wrap;html=1;aspect=fixed;rotation=0;gradientColor=#223548;strokeColor=none;gradientDirection=east;fillColor=#5b738b;rounded=0;pointerEvents=0;fontFamily=Helvetica;fontSize=16;fontColor=#FFFFFF;spacingTop=4;spacingBottom=4;spacingLeft=4;spacingRight=4;points=[];fontStyle=1" vertex="1" parent="1">
          <mxGeometry x="632" y="476" width="22" height="22" as="geometry" />
        </mxCell>
      </root>
    </mxGraphModel>
  </diagram>
</mxfile>
